<svg id="visual" viewBox="0 0 960 540" width="960" height="540" xmlns="http://www.w3.org/2000/svg" xmlns:xlink="http://www.w3.org/1999/xlink" version="1.1"><path d="M0 23L10 23.8C20 24.7 40 26.3 60 26.5C80 26.7 100 25.3 120 24.8C140 24.3 160 24.7 180 26.7C200 28.7 220 32.3 240 33C260 33.7 280 31.3 300 27.2C320 23 340 17 360 16.3C380 15.7 400 20.3 420 25.3C440 30.3 460 35.7 480 36.3C500 37 520 33 540 31.8C560 30.7 580 32.3 600 33.8C620 35.3 640 36.7 660 33.2C680 29.7 700 21.3 720 21C740 20.7 760 28.3 780 29.3C800 30.3 820 24.7 840 21C860 17.3 880 15.7 900 18C920 20.3 940 26.7 950 29.8L960 33L960 0L950 0C940 0 920 0 900 0C880 0 860 0 840 0C820 0 800 0 780 0C760 0 740 0 720 0C700 0 680 0 660 0C640 0 620 0 600 0C580 0 560 0 540 0C520 0 500 0 480 0C460 0 440 0 420 0C400 0 380 0 360 0C340 0 320 0 300 0C280 0 260 0 240 0C220 0 200 0 180 0C160 0 140 0 120 0C100 0 80 0 60 0C40 0 20 0 10 0L0 0Z" fill="#121212" stroke-linecap="round" stroke-linejoin="miter"></path></svg>