<svg id="visual" viewBox="0 0 960 540" width="960" height="540" xmlns="http://www.w3.org/2000/svg" xmlns:xlink="http://www.w3.org/1999/xlink" version="1.1"><path d="M0 39L12.3 35.7C24.7 32.3 49.3 25.7 74 24.3C98.7 23 123.3 27 148 27.2C172.7 27.3 197.3 23.7 221.8 22.8C246.3 22 270.7 24 295.2 23C319.7 22 344.3 18 369 19.2C393.7 20.3 418.3 26.7 443 26.5C467.7 26.3 492.3 19.7 517 20C541.7 20.3 566.3 27.7 591 29.2C615.7 30.7 640.3 26.3 664.8 23C689.3 19.7 713.7 17.3 738.2 19.7C762.7 22 787.3 29 812 32.8C836.7 36.7 861.3 37.3 886 37C910.7 36.7 935.3 35.3 947.7 34.7L960 34L960 0L947.7 0C935.3 0 910.7 0 886 0C861.3 0 836.7 0 812 0C787.3 0 762.7 0 738.2 0C713.7 0 689.3 0 664.8 0C640.3 0 615.7 0 591 0C566.3 0 541.7 0 517 0C492.3 0 467.7 0 443 0C418.3 0 393.7 0 369 0C344.3 0 319.7 0 295.2 0C270.7 0 246.3 0 221.8 0C197.3 0 172.7 0 148 0C123.3 0 98.7 0 74 0C49.3 0 24.7 0 12.3 0L0 0Z" fill="#121212" stroke-linecap="round" stroke-linejoin="miter"></path></svg>