<svg id="visual" viewBox="0 0 960 540" width="960" height="540" xmlns="http://www.w3.org/2000/svg" xmlns:xlink="http://www.w3.org/1999/xlink" version="1.1"><path d="M0 510L10 509.7C20 509.3 40 508.7 60 509.3C80 510 100 512 120 511.8C140 511.7 160 509.3 180 509.7C200 510 220 513 240 515.8C260 518.7 280 521.3 300 519.8C320 518.3 340 512.7 360 512.3C380 512 400 517 420 519.8C440 522.7 460 523.3 480 523.3C500 523.3 520 522.7 540 519.3C560 516 580 510 600 509.5C620 509 640 514 660 512.8C680 511.7 700 504.3 720 501.3C740 498.3 760 499.7 780 502.3C800 505 820 509 840 513.3C860 517.7 880 522.3 900 520.7C920 519 940 511 950 507L960 503L960 541L950 541C940 541 920 541 900 541C880 541 860 541 840 541C820 541 800 541 780 541C760 541 740 541 720 541C700 541 680 541 660 541C640 541 620 541 600 541C580 541 560 541 540 541C520 541 500 541 480 541C460 541 440 541 420 541C400 541 380 541 360 541C340 541 320 541 300 541C280 541 260 541 240 541C220 541 200 541 180 541C160 541 140 541 120 541C100 541 80 541 60 541C40 541 20 541 10 541L0 541Z" fill="#121212" stroke-linecap="round" stroke-linejoin="miter"></path></svg>