<svg id="visual" viewBox="0 0 960 540" width="960" height="540" xmlns="http://www.w3.org/2000/svg" xmlns:xlink="http://www.w3.org/1999/xlink" version="1.1"><path d="M0 503L10 506C20 509 40 515 60 515.3C80 515.7 100 510.3 120 508.8C140 507.3 160 509.7 180 508.5C200 507.3 220 502.7 240 500.8C260 499 280 500 300 500.7C320 501.3 340 501.7 360 505.8C380 510 400 518 420 518.7C440 519.3 460 512.7 480 508C500 503.3 520 500.7 540 500C560 499.3 580 500.7 600 500.5C620 500.3 640 498.7 660 500.3C680 502 700 507 720 508.5C740 510 760 508 780 505.3C800 502.7 820 499.3 840 501.3C860 503.3 880 510.7 900 515.2C920 519.7 940 521.3 950 522.2L960 523L960 541L950 541C940 541 920 541 900 541C880 541 860 541 840 541C820 541 800 541 780 541C760 541 740 541 720 541C700 541 680 541 660 541C640 541 620 541 600 541C580 541 560 541 540 541C520 541 500 541 480 541C460 541 440 541 420 541C400 541 380 541 360 541C340 541 320 541 300 541C280 541 260 541 240 541C220 541 200 541 180 541C160 541 140 541 120 541C100 541 80 541 60 541C40 541 20 541 10 541L0 541Z" fill="#121212" stroke-linecap="round" stroke-linejoin="miter"></path></svg>