<svg id="visual" viewBox="0 0 960 540" width="960" height="540" xmlns="http://www.w3.org/2000/svg" xmlns:xlink="http://www.w3.org/1999/xlink" version="1.1"><path d="M0 518L12.3 517.8C24.7 517.7 49.3 517.3 74 515C98.7 512.7 123.3 508.3 148 507C172.7 505.7 197.3 507.3 221.8 510C246.3 512.7 270.7 516.3 295.2 516C319.7 515.7 344.3 511.3 369 510.5C393.7 509.7 418.3 512.3 443 514C467.7 515.7 492.3 516.3 517 515.5C541.7 514.7 566.3 512.3 591 512.3C615.7 512.3 640.3 514.7 664.8 514.3C689.3 514 713.7 511 738.2 508.8C762.7 506.7 787.3 505.3 812 506.8C836.7 508.3 861.3 512.7 886 513C910.7 513.3 935.3 509.7 947.7 507.8L960 506L960 541L947.7 541C935.3 541 910.7 541 886 541C861.3 541 836.7 541 812 541C787.3 541 762.7 541 738.2 541C713.7 541 689.3 541 664.8 541C640.3 541 615.7 541 591 541C566.3 541 541.7 541 517 541C492.3 541 467.7 541 443 541C418.3 541 393.7 541 369 541C344.3 541 319.7 541 295.2 541C270.7 541 246.3 541 221.8 541C197.3 541 172.7 541 148 541C123.3 541 98.7 541 74 541C49.3 541 24.7 541 12.3 541L0 541Z" fill="#121212" stroke-linecap="round" stroke-linejoin="miter"></path></svg>